<?xml version="1.0" encoding="UTF-8"?>
<svg id="uuid-616dae58-a04d-4424-97a9-b41eed7ff38d" data-name="Capa 1" xmlns="http://www.w3.org/2000/svg" viewBox="0 0 500 500">
  <defs>
    <style>
      .uuid-ebe3cc80-4b25-4fe6-b9a3-671a17c4dd12 {
        fill: #fff;
      }

      .uuid-4cbc8555-6cc4-48d1-8213-02f7fa03c4e5 {
        fill: #351747;
      }
    </style>
  </defs>
  <circle class="uuid-4cbc8555-6cc4-48d1-8213-02f7fa03c4e5" cx="250" cy="250" r="250"/>
  <path class="uuid-ebe3cc80-4b25-4fe6-b9a3-671a17c4dd12" d="m405.9,246.69c-6.07-15.32-14.65-28.67-25.71-40.05-11.07-11.37-24.01-20.13-38.81-26.29-14.8-6.15-31.03-9.22-48.71-9.22-2.42,0-4.75.2-7.11.32,2.12-6.51,3.31-13.56,3.31-21.3,0-19.03-7.08-34.35-21.24-45.96-14.16-11.6-35.29-17.41-63.39-17.41h-109.23v243.75h79.3c1.39,5.75,3.01,11.4,5.15,16.8,6.07,15.32,14.63,28.67,25.71,40.04,11.07,11.38,24.06,20.2,38.97,26.47,14.9,6.26,31.19,9.4,48.87,9.4s33.59-3.08,48.39-9.23c14.8-6.15,27.73-14.91,38.81-26.29,11.07-11.37,19.64-24.77,25.71-40.22,6.06-15.44,9.1-32.21,9.1-50.31s-3.03-35.17-9.1-50.49Zm-122.57-69.31c-.9,2.08-1.91,4.1-3.08,6.02,1.17-1.92,2.15-3.96,3.08-6.02Zm-17.94,28.48c-1.94-.92-3.99-1.66-6.03-2.42,0,0,0,0,0,0h0c2.04.76,4.1,1.5,6.03,2.42Zm5.62-11.06c.1-.1.19-.21.29-.31-.1.1-.19.21-.29.31Zm5.28,17.8c-.46-.34-.9-.7-1.37-1.04.47.34.91.69,1.37,1.04Zm-78.45-83.36c12.56,0,22.2,2.32,28.9,6.96,6.71,4.65,10.06,11.84,10.06,21.59s-3.35,17-10.06,21.76c-6.71,4.76-16.34,7.13-28.9,7.13h-51.43v-57.46h51.43Zm-51.43,158.79v-60.24h60.69c13.2,0,23.31,2.44,30.34,7.31,7.03,4.87,10.54,12.54,10.54,22.98s-3.51,17.76-10.54,22.64c-7.02,4.87-17.14,7.31-30.34,7.31h-60.69Zm210.93,40.66c-3.51,9.4-8.46,17.65-14.85,24.72-6.39,7.08-13.79,12.53-22.2,16.37-8.41,3.83-17.62,5.75-27.63,5.75s-19.27-1.91-27.79-5.75c-8.52-3.83-15.92-9.28-22.2-16.37-6.07-6.84-10.78-14.83-14.27-23.84-5.66.54-11.48.94-17.8.94,29.38,0,51.63-5.86,66.75-17.58,15.12-11.72,22.68-28.03,22.68-48.93,0-14.15-3.09-26.11-9.26-35.87-1.95-3.08-4.22-5.85-6.63-8.47,0,0,0,0,0,0,2.82-.33,5.57-.85,8.52-.85,10.01,0,19.21,1.91,27.63,5.75,8.41,3.83,15.81,9.29,22.2,16.37,6.39,7.08,11.34,15.32,14.85,24.72,3.52,9.4,5.27,19.91,5.27,31.51s-1.75,22.11-5.27,31.51Z"/>
</svg>